{
  "asset": {
    "version": "2.0",
    "generator": "THREE.GLTFExporter"
  },
  "scenes": [
    {
      "nodes": [
        0
      ]
    }
  ],
  "scene": 0,
  "nodes": [
    {
      "children": [
        9
      ],
      "matrix": [
        0.01,
        0,
        0,
        0,
        0,
        0.01,
        0,
        0,
        0,
        0,
        0.01,
        0,
        0,
        0,
        0,
        1
      ]
    },
    {
      "matrix": [
        1,
        0,
        0,
        0,
        0,
        1,
        0,
        0,
        0,
        0,
        1,
        0,
        141,
        175,
        -7,
        1
      ],
      "name": "base"
    },
    {
      "matrix": [
        0.06404530481923565,
        0.00061889254066588,
        -0.00010067240618270939,
        0,
        0.0001381352465322544,
        -0.0002032517594154157,
        0.0866287327714328,
        0,
        0.0014647360243613596,
        -0.15163458994230777,
        -0.0003581066913178749,
        0,
        3.5418045865299064,
        -616.875712560697,
        -2063.616196851508,
        1
      ],
      "name": "base_2 3"
    },
    {
      "matrix": [
        0.16273424333700756,
        -1.002927207103814e-32,
        -1.992919702143328e-17,
        0,
        2.6888732597473873e-17,
        9.750563200259522e-17,
        0.21956316397670628,
        0,
        0,
        0.2700882731967517,
        -1.1994328783371331e-16,
        0,
        -1316,
        1063.1278703617381,
        439.921714646435,
        1
      ],
      "name": "base"
    },
    {
      "matrix": [
        1,
        0,
        0,
        0,
        0,
        1,
        0,
        0,
        0,
        0,
        1,
        0,
        -144.73311541594012,
        -43.798499572498685,
        648.3360751626751,
        1
      ],
      "name": "Point Light 2",
      "extensions": {
        "KHR_lights_punctual": {
          "light": 0
        }
      }
    },
    {
      "matrix": [
        1,
        0,
        0,
        0,
        0,
        2.7755575615630136e-16,
        -1.000000000000044,
        0,
        0,
        1.000000000000044,
        2.7755575615630136e-16,
        0,
        -708,
        686,
        216.00000000000006,
        1
      ],
      "name": "Rectangle 4",
      "mesh": 0
    },
    {
      "matrix": [
        1,
        0,
        0,
        0,
        0,
        2.220446049250381e-16,
        -1.0000000000000306,
        0,
        0,
        1.0000000000000306,
        2.220446049250381e-16,
        0,
        -706,
        585,
        216,
        1
      ],
      "name": "Rectangle 2",
      "mesh": 1
    },
    {
      "matrix": [
        0.9999745079820606,
        0,
        0,
        0,
        0,
        3.6801116052334932,
        0,
        0,
        0,
        0,
        0.999974507982079,
        0,
        -705.3540125184118,
        471.0275997057314,
        215.35401251840085,
        1
      ],
      "name": "Boolean",
      "mesh": 2
    },
    {
      "matrix": [
        0.582746158471325,
        3.866630987614528e-8,
        0.8126542406133815,
        0,
        0.5383766422106271,
        0.7490692870571266,
        -0.3860644950131241,
        0,
        -0.6087343475679058,
        0.6624916627307295,
        0.4365172286443567,
        0,
        -745.1445453941293,
        657.6106809844941,
        253.69749593787688,
        1
      ],
      "camera": 0
    },
    {
      "name": "Scene",
      "children": [
        1,
        2,
        3,
        4,
        5,
        6,
        7,
        8
      ]
    }
  ],
  "extensions": {
    "KHR_lights_punctual": {
      "lights": [
        {
          "name": "Point Light 2",
          "color": [
            1,
            1,
            1
          ],
          "intensity": 1,
          "type": "point",
          "range": 2000
        }
      ]
    }
  },
  "bufferViews": [
    {
      "buffer": 0,
      "byteOffset": 0,
      "byteLength": 7752,
      "target": 34962,
      "byteStride": 12
    },
    {
      "buffer": 0,
      "byteOffset": 7752,
      "byteLength": 7752,
      "target": 34962,
      "byteStride": 12
    },
    {
      "buffer": 0,
      "byteOffset": 15504,
      "byteLength": 5168,
      "target": 34962,
      "byteStride": 8
    },
    {
      "buffer": 0,
      "byteOffset": 20672,
      "byteLength": 12432,
      "target": 34963
    },
    {
      "buffer": 0,
      "byteOffset": 33104,
      "byteLength": 23880,
      "target": 34962,
      "byteStride": 12
    },
    {
      "buffer": 0,
      "byteOffset": 56984,
      "byteLength": 23880,
      "target": 34962,
      "byteStride": 12
    },
    {
      "buffer": 0,
      "byteOffset": 80864,
      "byteLength": 15920,
      "target": 34962,
      "byteStride": 8
    },
    {
      "buffer": 0,
      "byteOffset": 96784,
      "byteLength": 39312,
      "target": 34963
    },
    {
      "buffer": 0,
      "byteOffset": 136096,
      "byteLength": 196704,
      "target": 34962,
      "byteStride": 12
    },
    {
      "buffer": 0,
      "byteOffset": 332800,
      "byteLength": 196704,
      "target": 34962,
      "byteStride": 12
    }
  ],
  "buffers": [
    {
      "byteLength": 529504,
      "uri": "data:application/octet-stream;base64,"
    }
  ],
  "accessors": [
    {
      "bufferView": 0,
      "componentType": 5126,
      "count": 646,
      "max": [
        200,
        200,
        16
      ],
      "min": [
        -200,
        -200,
        0
      ],
      "type": "VEC3"
    },
    {
      "bufferView": 1,
      "componentType": 5126,
      "count": 646,
      "max": [
        1,
        1,
        1
      ],
      "min": [
        -1,
        -1,
        -1
      ],
      "type": "VEC3"
    },
    {
      "bufferView": 2,
      "componentType": 5126,
      "count": 646,
      "max": [
        1,
        1
      ],
      "min": [
        0,
        0
      ],
      "type": "VEC2"
    },
    {
      "bufferView": 3,
      "componentType": 5125,
      "count": 3108,
      "max": [
        645
      ],
      "min": [
        0
      ],
      "type": "SCALAR"
    },
    {
      "bufferView": 4,
      "componentType": 5126,
      "count": 1990,
      "max": [
        200,
        200,
        16
      ],
      "min": [
        -200,
        -200,
        0
      ],
      "type": "VEC3"
    },
    {
      "bufferView": 5,
      "componentType": 5126,
      "count": 1990,
      "max": [
        1,
        1,
        1
      ],
      "min": [
        -1,
        -1,
        -1
      ],
      "type": "VEC3"
    },
    {
      "bufferView": 6,
      "componentType": 5126,
      "count": 1990,
      "max": [
        1,
        1
      ],
      "min": [
        0,
        0
      ],
      "type": "VEC2"
    },
    {
      "bufferView": 7,
      "componentType": 5125,
      "count": 9828,
      "max": [
        1989
      ],
      "min": [
        0
      ],
      "type": "SCALAR"
    },
    {
      "bufferView": 8,
      "componentType": 5126,
      "count": 16392,
      "max": [
        200,
        8,
        200
      ],
      "min": [
        -200,
        -8,
        -200
      ],
      "type": "VEC3"
    },
    {
      "bufferView": 9,
      "componentType": 5126,
      "count": 16392,
      "max": [
        1,
        1,
        1
      ],
      "min": [
        -1,
        -1,
        -1
      ],
      "type": "VEC3"
    }
  ],
  "meshes": [
    {
      "primitives": [
        {
          "mode": 4,
          "attributes": {
            "POSITION": 0,
            "NORMAL": 1,
            "TEXCOORD_0": 2
          },
          "extras": {
            "parameters": {
              "width": 400,
              "subdivisions": 12,
              "roundness": 64,
              "extrudeBevelSize": 4,
              "extrudeBevelSegments": 4,
              "windingRule": 0,
              "height": 400,
              "type": "VectorGeometry",
              "cornerRadius": [
                64,
                64,
                64,
                64
              ],
              "cornerType": 0,
              "depth": 16,
              "shape": {
                "isClosed": true,
                "points": [
                  {
                    "id": "75a3e8d5-b291-4a03-9733-d83d4283269f",
                    "fi": 0,
                    "data": {
                      "position": [
                        -200,
                        200
                      ],
                      "controlNext": {
                        "position": [
                          -200,
                          200
                        ]
                      },
                      "controlPrevious": {
                        "position": [
                          -200,
                          200
                        ]
                      },
                      "areControlsDirectionsMirrored": true,
                      "roundness": 64
                    }
                  },
                  {
                    "id": "81f29ba2-b868-48a8-80d5-2aca3c77dffc",
                    "fi": 1,
                    "data": {
                      "position": [
                        200,
                        200
                      ],
                      "controlNext": {
                        "position": [
                          200,
                          200
                        ]
                      },
                      "controlPrevious": {
                        "position": [
                          200,
                          200
                        ]
                      },
                      "areControlsDirectionsMirrored": true,
                      "roundness": 64
                    }
                  },
                  {
                    "id": "fdddbf38-44ed-442d-b6cc-ea2e15842a09",
                    "fi": 2,
                    "data": {
                      "position": [
                        200,
                        -200
                      ],
                      "controlNext": {
                        "position": [
                          200,
                          -200
                        ]
                      },
                      "controlPrevious": {
                        "position": [
                          200,
                          -200
                        ]
                      },
                      "areControlsDirectionsMirrored": true,
                      "roundness": 64
                    }
                  },
                  {
                    "id": "1d0eea8d-564c-4a01-b81e-38b0c1332250",
                    "fi": 3,
                    "data": {
                      "position": [
                        -200,
                        -200
                      ],
                      "controlNext": {
                        "position": [
                          -200,
                          -200
                        ]
                      },
                      "controlPrevious": {
                        "position": [
                          -200,
                          -200
                        ]
                      },
                      "areControlsDirectionsMirrored": true,
                      "roundness": 64
                    }
                  }
                ],
                "roundness": 64,
                "shapeHoles": []
              }
            },
            "shape": {
              "points": [
                -200,
                200,
                -200,
                200,
                -200,
                200,
                64,
                200,
                200,
                200,
                200,
                200,
                200,
                64,
                200,
                -200,
                200,
                -200,
                200,
                -200,
                64,
                -200,
                -200,
                -200,
                -200,
                -200,
                -200,
                64
              ],
              "shapeHoles": [],
              "isClosed": true,
              "roundness": 64
            },
            "type": "VectorGeometry"
          },
          "indices": 3
        }
      ]
    },
    {
      "primitives": [
        {
          "mode": 4,
          "attributes": {
            "POSITION": 4,
            "NORMAL": 5,
            "TEXCOORD_0": 6
          },
          "extras": {
            "shape": {
              "points": [
                -200,
                200,
                -200,
                200,
                -200,
                200,
                64,
                200,
                200,
                200,
                200,
                200,
                200,
                64,
                200,
                -200,
                200,
                -200,
                200,
                -200,
                64,
                -200,
                -200,
                -200,
                -200,
                -200,
                -200,
                64
              ],
              "shapeHoles": [],
              "isClosed": true,
              "roundness": 64
            },
            "parameters": {
              "width": 400,
              "depth": 16,
              "cornerRadius": [
                64,
                64,
                64,
                64
              ],
              "cornerType": 0,
              "extrudeBevelSize": 4,
              "extrudeBevelSegments": 4,
              "height": 400,
              "type": "RectangleGeometry"
            },
            "ui": {
              "enabledIndieCorners": false
            },
            "type": "RectangleGeometry"
          },
          "indices": 7
        }
      ]
    },
    {
      "primitives": [
        {
          "mode": 4,
          "attributes": {
            "POSITION": 8,
            "NORMAL": 9
          },
          "extras": {
            "parameters": {
              "width": 400,
              "height": 16,
              "depth": 400
            }
          }
        }
      ]
    }
  ],
  "cameras": [
    {
      "type": "orthographic",
      "orthographic": {
        "xmag": 5.864444999999999,
        "ymag": 3.0706885624999996,
        "zfar": 100000,
        "znear": 0
      }
    }
  ],
  "extensionsUsed": [
    "KHR_lights_punctual"
  ]
}